<?xml version="1.0" standalone="no"?>
<!DOCTYPE svg PUBLIC "-//W3C//DTD SVG 20010904//EN"
 "http://www.w3.org/TR/2001/REC-SVG-20010904/DTD/svg10.dtd">
<svg version="1.0" xmlns="http://www.w3.org/2000/svg"
 width="241.000000pt" height="225.000000pt" viewBox="0 0 241.000000 225.000000"
 preserveAspectRatio="xMidYMid meet">
<metadata>
Created by potrace 1.16, written by Peter Selinger 2001-2019
</metadata>
<g transform="translate(0.000000,225.000000) scale(0.100000,-0.100000)"
fill="#000000" stroke="none">
<path d="M380 2060 c-19 -19 -20 -33 -20 -515 l0 -495 890 0 890 0 0 498 c0
471 -1 500 -18 515 -17 16 -92 17 -870 17 -839 0 -852 0 -872 -20z m1641 -119
c18 -22 19 -44 19 -426 0 -382 -1 -404 -19 -426 l-19 -24 -752 0 -752 0 -19
24 c-18 22 -19 44 -19 423 0 263 4 406 11 419 6 11 20 24 32 29 12 5 347 8
760 7 l739 -2 19 -24z"/>
<path d="M810 1480 l0 -290 173 1 172 0 -55 21 c-41 16 -79 21 -152 21 l-98 1
0 268 c0 261 0 268 -20 268 -20 0 -20 -7 -20 -290z"/>
<path d="M1600 1502 l0 -267 -92 -1 c-68 -1 -108 -7 -148 -22 l-55 -21 173 0
172 -1 0 290 0 290 -25 0 -25 0 0 -268z"/>
<path d="M270 415 l0 -175 100 0 100 0 0 30 0 30 -65 0 -65 0 0 45 0 45 55 0
c54 0 55 0 55 30 0 30 -1 30 -55 30 l-55 0 0 45 0 45 65 0 c63 0 65 1 65 25
l0 25 -100 0 -100 0 0 -175z"/>
<path d="M830 415 l0 -175 100 0 100 0 0 30 0 30 -65 0 -65 0 0 45 0 45 60 0
60 0 0 30 0 30 -60 0 -60 0 0 45 0 45 71 0 c61 0 70 2 65 16 -3 9 -6 20 -6 25
0 5 -45 9 -100 9 l-100 0 0 -175z"/>
<path d="M1099 573 c6 -10 30 -49 54 -87 l45 -69 -42 -66 c-74 -114 -73 -111
-28 -111 36 0 40 3 72 59 l35 59 39 -59 c36 -55 41 -59 78 -59 29 0 37 3 32
13 -4 6 -26 41 -49 77 -23 36 -44 70 -48 76 -3 6 18 50 48 98 l54 86 -39 0
c-30 0 -43 -5 -53 -22 -8 -13 -23 -38 -34 -57 l-21 -34 -37 57 c-35 52 -41 56
-77 56 -34 0 -37 -2 -29 -17z"/>
<path d="M1547 578 c-25 -68 -117 -327 -117 -332 0 -4 17 -6 37 -4 33 3 39 7
47 36 l9 32 69 0 69 0 15 -35 c13 -31 19 -35 50 -35 25 0 35 4 32 12 -3 7 -31
86 -63 176 l-58 162 -42 0 c-25 0 -45 -5 -48 -12z"/>
<path d="M1810 416 l0 -176 35 0 34 0 3 112 3 112 45 -113 c43 -108 46 -112
73 -109 26 3 33 12 73 108 l43 105 1 -107 0 -108 40 0 40 0 0 175 0 175 -44 0
-43 0 -53 -125 c-29 -69 -56 -123 -59 -119 -3 3 -29 58 -56 122 l-51 117 -42
3 -42 3 0 -175z"/>
</g>
</svg>
